<?xml version="1.0" encoding="utf-8"?>
<!-- Generator: Adobe Illustrator 23.0.2, SVG Export Plug-In . SVG Version: 6.00 Build 0)  -->
<svg version="1.1" id="Слой_1" xmlns="http://www.w3.org/2000/svg" xmlns:xlink="http://www.w3.org/1999/xlink" x="0px" y="0px"
	 viewBox="0 0 39.4 50" style="enable-background:new 0 0 39.4 50;" xml:space="preserve">
<path d="M19.9,0h-0.2L0,2.1v36.2L19.7,50l19.7-11.7V2.1C39.4,2.1,19.9,0,19.9,0z M36.9,36.8L19.7,47L2.5,36.8V22l17.1,10.2V34
	L7.9,27v1.8l11.8,7.1v1.9l-11.8-7v1.8l11.8,7l11.9-7.1v-7.6l5.3-3.2V36.8z M36.8,19.8l-4.7,2.8l-2.2,1.3l-10.3-6.1v1.8l8.8,5.3h-0.1
	L28.1,25l-1.3,0.7l-7.3-4.3v1.8l5.8,3.4l-1.4,0.9l-4.3-2.6v1.8l2.9,1.7l-2.9,1.7L2.6,20l17-10.2C19.6,9.8,36.8,19.8,36.8,19.8z
	 M36.9,18L19.6,7.8L2.5,18V4.4l17.2-1.8l17.2,1.8C36.9,4.4,36.9,18,36.9,18z"/>
</svg>
