<?xml version="1.0" encoding="utf-8"?>
<!-- Generator: Adobe Illustrator 23.0.2, SVG Export Plug-In . SVG Version: 6.00 Build 0)  -->
<svg version="1.1" id="Layer_1" xmlns="http://www.w3.org/2000/svg" xmlns:xlink="http://www.w3.org/1999/xlink" x="0px" y="0px"
viewBox="0 0 32 22" style="enable-background:new 0 0 32 22;" xml:space="preserve">
<style type="text/css">
.st0{fill:#63D1BB;}
</style>
<g transform="translate(0 192)">
<path class="st0" d="M26-182l6-4v16l-6-4V-182z M24-182v8c0,2.2-1.8,4-4,4H4c-2.2,0-4-1.8-4-4v-8c0-2.2,1.8-4,4-4h10
c0-1.1,0.9-2,2-2v-2H5c-0.6,0-1-0.4-1-1s0.4-1,1-1h12c0.6,0,1,0.4,1,1v3c1.1,0,2,0.9,2,2C22.2-186,24-184.2,24-182z M12-182H4v8h8
V-182z M20-181c0-0.6-0.4-1-1-1h-4c-0.6,0-1,0.4-1,1s0.4,1,1,1h4C19.6-180,20-180.4,20-181z"/>
</g>
</svg>
